<?xml version="1.0" encoding="utf-8"?>
<!-- Generator: Adobe Illustrator 25.2.0, SVG Export Plug-In . SVG Version: 6.00 Build 0)  -->
<svg version="1.1" id="Layer_1" xmlns="http://www.w3.org/2000/svg" xmlns:xlink="http://www.w3.org/1999/xlink" x="0px" y="0px"
	 width="1000px" height="285px" viewBox="0 0 1000 285" style="enable-background:new 0 0 1000 285;" xml:space="preserve">
<style type="text/css">
	.st0{fill:#005DAB;}
	.st1{display:none;fill:#005DAB;}
</style>
<path class="st0" d="M69.6,1.4c0,0.1,0.1,239,0.1,239.1c-0.1,8.8-3.4,10.9-17.2,10.9c-12.6,0-15.9-2.9-16-10.7
	c0-0.1,0.2-71,0.1-71.2c0-0.2-36.6,0.1-36.6,0.1s0.2,95.8,0.2,96.2c-0.1,7.4,9.2,18,21.5,17.9c17.5-0.1,57.4,0.1,59.6,0.1
	c17.3,0,24.7-10,24.8-18.3c0-0.2,0.1-263.8,0-263.9C106,1.4,69.6,1.3,69.6,1.4"/>
<path class="st0" d="M140,4.5c-3.4,1.3-7.3,2.5-12.7,8.8c-3.2,3.7-4,10.9-4.1,19.6c0,1.4,0.1,225.9,0.1,226
	c-0.1,7.6,3.9,14,6.5,16.7c3.6,3.8,7.4,5.5,10.8,6.5c8.3,2.2,12.4,1.6,45.6,1.7c13.8,0,38.2-0.1,38.2-0.1l0-32.3
	c0,0-51.3-0.1-51.4-0.1c-7.3,0.1-10.5-2.6-11.4-6.6c-1-4.7-1.1-10.3-1.1-18.2c0-14.5,0.5-20.3,2.2-22c2.6-2.6,4.5-3.7,9.1-3.7
	c-4.6,0.1,52.7,0.1,52.7,0.2c0-0.1-0.1-31.4-0.1-31.5c0.1,0-32.8,0-54,0c-3.2,0-6.6-3.2-8.6-7.8c-1.9-4.4-1.2-12.5-1.2-20.8
	c0-13.4,0.3-19.7,2.8-21.7c1.6-1.2,1.6-2.1,6.9-2.6c0.2,0,54.1,0.1,54.2,0c0.1-0.1,0.3-115.3,0.2-115.2c-0.1,0.1-62.2,0.1-54.2,0
	C170.4,1.3,150.1,0.6,140,4.5"/>
<path class="st0" d="M914,1.5c0-0.1,0.1,168,0.1,168s-23.2-0.1-23.2-0.1c-7.5,0-9.8-4.9-9.7-10.9c0-0.2-0.1-157,0-157
	c0,0-35.2,0.1-35.2,0.1s0,167.9,0,168c0,20.8,13.3,31.4,33.9,31.3H914c0,0,0.2,35,0.1,42.6c-0.1,3.6-1.5,7.9-7.5,7.8
	c-6.3-0.1-30.4,0.1-30.4,0.1l0,32.2c0,0,37.8,0.1,37.9,0.1c29.4-0.1,34.6-7.5,34.6-32.3c0-0.1-0.1-250.1-0.1-250
	C948.6,1.4,914,1.5,914,1.5"/>
<path class="st0" d="M281.5,126.3c0,19.1,0.1,113.3,0.1,113.5c-0.1,14.9,25.6,15.9,25.6-0.1c0,13.5,0.3-89.1,0.1-113.3
	C307.1,112.5,281.5,112.7,281.5,126.3 M327.3,1.4c11.5,0,17.1,10,17,20.7c0,0.3,0,243.8,0,243.9c0.1,8.6-11.3,17.7-18.5,17.7
	c0,0-18.7,0-31.3,0c-13,0-30.2,0-30.3,0c-9,0-20.8-11.8-20.8-19.4c0-0.1,0-242.6,0-242.8c0-12,9.7-20.1,18-20.1
	C277.3,1.3,318.1,1.4,327.3,1.4"/>
<path class="st0" d="M399.1,116.4l-0.2,53c0,0,16.2,0,23.5,0c2,0,3.4-1.1,4.4-2.8c1.3-2.1,1.9-6.4,2-9.8c0-0.2,0-23.2,0-23.3
	c0-3.8,0.7-11.3-2.8-14.5c-2.8-2.5-4.5-2.5-8-2.5L399.1,116.4z M454.2,7.4c5,4.3,11,7.5,11,36.4c0,0.2,0,124.9,0,135.4
	c0,7.8-2.5,11.8-6,15.4c-3.8,3.9-9.2,6.3-14.2,6.2c-6.7-0.1-46,0.1-46,0.1c-0.1,0.1,0,82.7,0,82.7s-36.4,0-36.3-0.1
	c0-0.1-0.1-238-0.1-282.2c14.4,0.1,62.5,0,62.5,0C443.1,1.4,451.1,4.8,454.2,7.4"/>
<path class="st0" d="M639.9,116.4c0,0.1,0.2,53,0.1,53c-0.1,0,9.1,0,17.3,0c10.9,0,13.8-5.4,14-10c0.3-9.7,0.2-8.1,0.1-17.6
	c0-5.8,0.8-15-1.2-20.4c-1.5-4-6-5.6-15.8-5.1C651.2,116.6,639.9,116.4,639.9,116.4 M689.3,3.3c10.4,2.9,16.9,10.3,17.9,19
	c0.9,7.8,2.2,11,2.2,38.8c0,0.2,0,89.6,0,106.5c0,9.2-6,13.3-8.8,16c-1.3,1.3-5.1,2.8-2.2,4.9c5,3.5,8.3,9,9.8,14
	c3.8,12.9,10.2,81.3,10.2,81.3l-37,0c0,0-3.2-50.3-5.6-68c-0.7-5.3-5.1-9.6-8.9-11.6c-8.3-4.4-27-3.2-27-3.2l0,82.8l-34.7-0.1
	L605.1,1.4c0,0,66.2,0.1,63.5,0.1C683.7,1.4,687.2,2.7,689.3,3.3"/>
<path class="st0" d="M765.6,116.5c0.1,0,0.2,134.8,0.1,134.9c-0.1,0,8,0,16.7-0.1c6.3-0.1,12.7-0.7,16-4.7
	c4.3-5.1,3.2-13.4,3.3-23.2c0-0.1,0-79.7,0-79.8c0-14.5,1.2-27.1-13.6-27.1C788,116.5,765.6,116.5,765.6,116.5 M807.6,1.4
	c10.6,0.7,15.6,4.6,18.6,7.7c2.7,2.9,6.5,8.5,6.5,18.3c0,4.8,0.1,231.8,0.1,232c-0.1,6.5-3.4,13.1-6.5,16.6c-4.4,5-10,7.7-15.7,7.6
	c-0.1,0-78.7,0-78.7,0S731.7,1.4,731.7,1.4C723.4,2.6,799.2,0.8,807.6,1.4"/>
<path class="st0" d="M519.8,122.2c0,0-3.4,47-3.4,47.1c0.1,0.1,25.4,0.1,25.5,0.1c0.2,0-2.9-47.1-2.9-47.1c-0.2-5.8-4.6-6-9.3-5.9
	C525,116.5,520.5,116.5,519.8,122.2 M528.5,1.5c26.1,0,27.5,4.2,30.8,6.4c3,2,6.3,6.4,7.1,10.6l25.5,265.3c0,0-38.2-0.1-38.2-0.1
	c-0.1-0.1-8-82.8-8-82.8l-31.4,0.1l-9.4,82.7l-35.7,0.1l23.5-266c1.3-4.7,4-8.3,6.4-10.2C503.7,4.1,507,1.5,528.5,1.5"/>
<path class="st0" d="M966.1,211.9c-0.1,0-0.1,32.8-0.1,32.7c0-0.1,34-0.1,34-0.1c0,0,0-32.8,0-32.8S966.2,212,966.1,211.9"/>
<path class="st0" d="M966,1.5c-0.1,0-0.2,199.5-0.1,199.5c0,0,33.9-0.2,34-0.1c0,0.1,0-199.5,0-199.5C999.9,1.4,966.1,1.5,966,1.5"
	/>
<path class="st1" d="M977.4,264.9c2.8-0.1,3.5-1.3,3.5-2.7c0-1.4-0.7-2.2-3-2.2h-3.6v4.9H977.4z M974.2,267.9v8.3h-3V257h6.2
	c3.5,0,7.1,1,7.1,5.3c0,2.2-1.3,3.9-3.9,4.5v0.1c2.6,0.5,2.9,1.7,3.2,3.8c0.3,1.8,0.5,3.8,1.1,5.5h-3.8c-0.2-1.1-0.5-2.3-0.7-3.4
	c-0.2-1.6-0.2-3.2-1.1-4.1c-0.7-0.8-1.7-0.7-2.8-0.8H974.2z M991.1,266.8c0-7.4-6-13.4-13.4-13.4c-7.4,0-13.5,6-13.5,13.4
	c0,7.4,6,13.5,13.5,13.5C985.1,280.3,991.1,274.3,991.1,266.8 M961.4,266.8c0-9,7.3-16.2,16.3-16.2c9,0,16.2,7.3,16.2,16.2
	c0,9.1-7.2,16.3-16.2,16.3C968.7,283.1,961.4,275.9,961.4,266.8"/>
</svg>
